<?xml version="1.0" encoding="UTF-8"?> <svg xmlns="http://www.w3.org/2000/svg" width="75" height="75" viewBox="0 0 75 75" fill="none"><path d="M66.1501 68.75C65.1501 68.75 64.3501 69.55 64.3501 70.55C64.3501 71.55 65.1501 72.25 66.1501 72.25C67.1501 72.25 67.9501 71.45 67.9501 70.55C67.9501 69.65 67.1501 68.75 66.1501 68.75Z" stroke="#1681C4" stroke-width="1.5" stroke-miterlimit="10"></path><path d="M68.05 65.25C67.05 65.25 66.25 66.05 66.25 67.05C66.25 68.05 67.05 68.75 68.05 68.75C69.05 68.75 69.85 67.95 69.85 67.05C69.85 66.15 68.95 65.25 68.05 65.25Z" stroke="#1681C4" stroke-width="1.5" stroke-miterlimit="10"></path><path d="M69.7502 68.75C68.7502 68.75 67.9502 69.55 67.9502 70.55C67.9502 71.55 68.7502 72.25 69.7502 72.25C70.7502 72.25 71.5502 71.45 71.5502 70.55C71.5502 69.65 70.7502 68.75 69.7502 68.75Z" stroke="#1681C4" stroke-width="1.5" stroke-miterlimit="10"></path><path d="M3.4502 72.2501L9.35019 66.3501L15.2502 72.2501" stroke="#1681C4" stroke-width="1.5" stroke-miterlimit="10"></path><path d="M48.0498 69.25V40.55H38.0498L33.3498 35.85H29.3498V30.75H17.5498V52.75" stroke="#1681C4" stroke-width="1.5" stroke-miterlimit="10"></path><path d="M2.75 72.25H72.25" stroke="#1681C4" stroke-width="1.5" stroke-miterlimit="10" stroke-linecap="square"></path><path d="M17.5498 55.75V72.25" stroke="#1681C4" stroke-width="1.5" stroke-miterlimit="10"></path><path d="M22.4502 42.6499H24.4502V44.6499H22.4502V42.6499Z" fill="#1681C4"></path><path d="M27.1499 42.6499H29.1499V44.6499H27.1499V42.6499Z" fill="#1681C4"></path><path d="M31.8501 42.6499H33.8501V44.6499H31.8501V42.6499Z" fill="#1681C4"></path><path d="M22.4502 47.3501H24.4502V49.3501H22.4502V47.3501Z" fill="#1681C4"></path><path d="M27.1499 47.3501H29.1499V49.3501H27.1499V47.3501Z" fill="#1681C4"></path><path d="M31.8501 47.3501H33.8501V49.3501H31.8501V47.3501Z" fill="#1681C4"></path><path d="M36.5498 47.3501H38.5498V49.3501H36.5498V47.3501Z" fill="#1681C4"></path><path d="M41.25 47.3501H43.25V49.3501H41.25V47.3501Z" fill="#1681C4"></path><path d="M22.4502 52.05H24.4502V54.05H22.4502V52.05Z" fill="#1681C4"></path><path d="M27.1499 52.05H29.1499V54.05H27.1499V52.05Z" fill="#1681C4"></path><path d="M31.8501 52.05H33.8501V54.05H31.8501V52.05Z" fill="#1681C4"></path><path d="M36.5498 52.05H38.5498V54.05H36.5498V52.05Z" fill="#1681C4"></path><path d="M41.25 52.05H43.25V54.05H41.25V52.05Z" fill="#1681C4"></path><path d="M22.4502 56.75H24.4502V58.75H22.4502V56.75Z" fill="#1681C4"></path><path d="M27.1499 56.75H29.1499V58.75H27.1499V56.75Z" fill="#1681C4"></path><path d="M31.8501 56.75H33.8501V58.75H31.8501V56.75Z" fill="#1681C4"></path><path d="M36.5498 56.75H38.5498V58.75H36.5498V56.75Z" fill="#1681C4"></path><path d="M41.25 56.75H43.25V58.75H41.25V56.75Z" fill="#1681C4"></path><path d="M22.4502 61.45H24.4502V63.45H22.4502V61.45Z" fill="#1681C4"></path><path d="M27.1499 61.45H29.1499V63.45H27.1499V61.45Z" fill="#1681C4"></path><path d="M31.8501 61.45H33.8501V63.45H31.8501V61.45Z" fill="#1681C4"></path><path d="M36.5498 61.45H38.5498V63.45H36.5498V61.45Z" fill="#1681C4"></path><path d="M41.25 61.45H43.25V63.45H41.25V61.45Z" fill="#1681C4"></path><path d="M22.4502 66.6499H24.4502V68.6499H22.4502V66.6499Z" fill="#1681C4"></path><path d="M27.1499 66.6499H29.1499V68.6499H27.1499V66.6499Z" fill="#1681C4"></path><path d="M31.8501 66.6499H33.8501V68.6499H31.8501V66.6499Z" fill="#1681C4"></path><path d="M36.5498 66.6499H38.5498V68.6499H36.5498V66.6499Z" fill="#1681C4"></path><path d="M41.25 66.6499H43.25V68.6499H41.25V66.6499Z" fill="#1681C4"></path><path d="M50.4502 2.75H62.2502V13.35H50.4502V2.75Z" stroke="#FF9900" stroke-width="1.5" stroke-miterlimit="10"></path><path d="M18.75 15.8501V30.7501" stroke="#1681C4" stroke-width="1.5" stroke-miterlimit="10"></path><path d="M35.15 21.75H18.75" stroke="#1681C4" stroke-width="1.5" stroke-miterlimit="10"></path><path d="M46.9502 21.75V40.55" stroke="#1681C4" stroke-width="1.5" stroke-miterlimit="10"></path><path d="M37.5498 24.05V40.05" stroke="#1681C4" stroke-width="1.5" stroke-miterlimit="10"></path><path d="M18.75 27.55H46.95" stroke="#1681C4" stroke-width="1.5" stroke-miterlimit="10"></path><path d="M28.1499 25.25V30.75" stroke="#1681C4" stroke-width="1.5" stroke-miterlimit="10"></path><path d="M50.45 10.75H2.75V5.25H50.45" stroke="#FF9900" stroke-width="1.5" stroke-miterlimit="10"></path><path d="M2.75 5.25L8.25 10.75" stroke="#FF9900" stroke-width="1.5" stroke-miterlimit="10"></path><path d="M13.75 5.25L8.25 10.75" stroke="#FF9900" stroke-width="1.5" stroke-miterlimit="10"></path><path d="M13.75 5.25L19.25 10.75" stroke="#FF9900" stroke-width="1.5" stroke-miterlimit="10"></path><path d="M24.75 5.25L19.25 10.75" stroke="#FF9900" stroke-width="1.5" stroke-miterlimit="10"></path><path d="M24.75 5.25L30.25 10.75" stroke="#FF9900" stroke-width="1.5" stroke-miterlimit="10"></path><path d="M46.75 5.25L50.45 8.95" stroke="#FF9900" stroke-width="1.5" stroke-miterlimit="10"></path><path d="M46.75 5.25L41.25 10.75" stroke="#FF9900" stroke-width="1.5" stroke-miterlimit="10"></path><path d="M35.75 5.25L41.25 10.75" stroke="#FF9900" stroke-width="1.5" stroke-miterlimit="10"></path><path d="M35.75 5.25L30.25 10.75" stroke="#FF9900" stroke-width="1.5" stroke-miterlimit="10"></path><path d="M62.25 10.75H72.25V5.25H62.25" stroke="#FF9900" stroke-width="1.5" stroke-miterlimit="10"></path><path d="M72.25 5.25L66.75 10.75" stroke="#FF9900" stroke-width="1.5" stroke-miterlimit="10"></path><path d="M66.75 10.75L62.25 6.25" stroke="#FF9900" stroke-width="1.5" stroke-miterlimit="10"></path><path d="M59.0498 13.3501V69.2501" stroke="#FF9900" stroke-width="1.5" stroke-miterlimit="10"></path><path d="M53.5498 69.2501V13.3501" stroke="#FF9900" stroke-width="1.5" stroke-miterlimit="10"></path><path d="M53.5498 13.3501L59.0498 18.8501" stroke="#FF9900" stroke-width="1.5" stroke-miterlimit="10"></path><path d="M53.5498 24.3501L59.0498 18.8501" stroke="#FF9900" stroke-width="1.5" stroke-miterlimit="10"></path><path d="M53.5498 24.3501L59.0498 29.8501" stroke="#FF9900" stroke-width="1.5" stroke-miterlimit="10"></path><path d="M53.5498 35.3501L59.0498 29.8501" stroke="#FF9900" stroke-width="1.5" stroke-miterlimit="10"></path><path d="M53.5498 35.3501L59.0498 40.8501" stroke="#FF9900" stroke-width="1.5" stroke-miterlimit="10"></path><path d="M53.5498 46.3501L59.0498 40.8501" stroke="#FF9900" stroke-width="1.5" stroke-miterlimit="10"></path><path d="M53.5498 46.3501L59.0498 51.8501" stroke="#FF9900" stroke-width="1.5" stroke-miterlimit="10"></path><path d="M53.5498 57.3501L59.0498 51.8501" stroke="#FF9900" stroke-width="1.5" stroke-miterlimit="10"></path><path d="M53.5498 57.3501L59.0498 62.8501" stroke="#FF9900" stroke-width="1.5" stroke-miterlimit="10"></path><path d="M53.5498 68.3501L59.0498 62.8501" stroke="#FF9900" stroke-width="1.5" stroke-miterlimit="10"></path><path d="M8.0502 10.75V34.65C9.3502 34.65 10.3502 35.65 10.3502 36.95C10.3502 38.25 9.3502 39.25 8.0502 39.25C7.0502 39.25 6.2502 38.65 5.9502 37.85" stroke="#FF9900" stroke-width="1.5" stroke-miterlimit="10"></path></svg> 