<?xml version="1.0" encoding="UTF-8"?> <svg xmlns="http://www.w3.org/2000/svg" width="75" height="75" viewBox="0 0 75 75" fill="none"><path d="M10.73 72.25V50.26" stroke="#FF9900" stroke-width="1.5" stroke-miterlimit="10"></path><path d="M14.29 72.25V48.75" stroke="#FF9900" stroke-width="1.5" stroke-miterlimit="10"></path><path d="M35.27 72.25V50.26" stroke="#FF9900" stroke-width="1.5" stroke-miterlimit="10"></path><path d="M31.71 72.25V48.75" stroke="#FF9900" stroke-width="1.5" stroke-miterlimit="10"></path><path d="M43.25 72.25V70.67C38.63 67.08 36.87 61.03 39.09 51.59L29.09 47.77C28.62 56.15 27.26 63.82 23 69.23C18.74 63.83 17.38 56.16 16.91 47.77L6.91 51.59C9.12 61.03 7.37 67.08 2.75 70.67V72.25" stroke="#FF9900" stroke-width="1.5" stroke-miterlimit="10"></path><path d="M8.54004 72.25H16.48" stroke="#FF9900" stroke-width="1.5" stroke-miterlimit="10"></path><path d="M29.52 72.25H37.46" stroke="#FF9900" stroke-width="1.5" stroke-miterlimit="10"></path><path d="M9.27002 57.6799H15.75" stroke="#FF9900" stroke-width="1.5" stroke-miterlimit="10"></path><path d="M30.25 57.6799H36.73" stroke="#FF9900" stroke-width="1.5" stroke-miterlimit="10"></path><path d="M23 69.23V72.25" stroke="#FF9900" stroke-width="1.5" stroke-miterlimit="10"></path><path d="M17.0698 50.0901C21.4198 52.6101 25.2398 52.4101 28.9398 50.0901" stroke="#FF9900" stroke-width="1.5" stroke-miterlimit="10"></path><path d="M21.4601 25.02C17.7101 25.74 14.8701 29.06 14.8701 33.04V34.32" stroke="#FF9900" stroke-width="1.5" stroke-miterlimit="10"></path><path d="M31.13 34.32V33.04C31.13 29.06 28.29 25.74 24.54 25.02" stroke="#FF9900" stroke-width="1.5" stroke-miterlimit="10"></path><path d="M24.2499 31.86H21.7499L21.4399 24.25H24.5599L24.2499 31.86Z" stroke="#FF9900" stroke-width="1.5" stroke-miterlimit="10"></path><path d="M31.75 34.1399C25.92 35.8599 20.08 35.8599 14.25 34.1399V35.6399C20.08 38.3799 25.92 38.3799 31.75 35.6399V34.1399Z" stroke="#FF9900" stroke-width="1.5" stroke-miterlimit="10"></path><path d="M18.6699 26.1299L19.5199 31.1099" stroke="#FF9900" stroke-width="1.5" stroke-miterlimit="10"></path><path d="M27.33 26.1299L26.48 31.1099" stroke="#FF9900" stroke-width="1.5" stroke-miterlimit="10"></path><path d="M31.1201 37.99V38.53C31.1201 39.34 30.6201 40.07 29.8601 40.36C29.8601 42.19 29.1401 43.94 27.8501 45.24L25.1701 47.93C24.6601 48.45 23.9601 48.74 23.2301 48.74H22.7601C22.0301 48.74 21.3301 48.45 20.8201 47.93L18.1401 45.24C16.8501 43.95 16.1301 42.19 16.1301 40.36C15.3701 40.07 14.8701 39.34 14.8701 38.53V37.99" stroke="#FF9900" stroke-width="1.5" stroke-miterlimit="10"></path><path d="M72.25 69.25V32.92H58.75L54.25 27.08H48.25V20.75H34.75V43.93" stroke="#1681C4" stroke-width="1.5" stroke-miterlimit="10"></path><path d="M49.25 72.25H72.25" stroke="#1681C4" stroke-width="1.5" stroke-miterlimit="10"></path><path d="M52 63.25H55V66.25H52V63.25Z" fill="#1681C4"></path><path d="M46 63.25H49V66.25H46V63.25Z" fill="#1681C4"></path><path d="M64 63.25H67V66.25H64V63.25Z" fill="#1681C4"></path><path d="M58 63.25H61V66.25H58V63.25Z" fill="#1681C4"></path><path d="M52 57.25H55V60.25H52V57.25Z" fill="#1681C4"></path><path d="M46 57.25H49V60.25H46V57.25Z" fill="#1681C4"></path><path d="M64 57.25H67V60.25H64V57.25Z" fill="#1681C4"></path><path d="M58 57.25H61V60.25H58V57.25Z" fill="#1681C4"></path><path d="M52 51.25H55V54.25H52V51.25Z" fill="#1681C4"></path><path d="M46 51.25H49V54.25H46V51.25Z" fill="#1681C4"></path><path d="M64 51.25H67V54.25H64V51.25Z" fill="#1681C4"></path><path d="M58 51.25H61V54.25H58V51.25Z" fill="#1681C4"></path><path d="M52 45.25H55V48.25H52V45.25Z" fill="#1681C4"></path><path d="M46 45.25H49V48.25H46V45.25Z" fill="#1681C4"></path><path d="M40 45.25H43V48.25H40V45.25Z" fill="#1681C4"></path><path d="M64 45.25H67V48.25H64V45.25Z" fill="#1681C4"></path><path d="M58 45.25H61V48.25H58V45.25Z" fill="#1681C4"></path><path d="M52 39.25H55V42.25H52V39.25Z" fill="#1681C4"></path><path d="M46 39.25H49V42.25H46V39.25Z" fill="#1681C4"></path><path d="M40 39.25H43V42.25H40V39.25Z" fill="#1681C4"></path><path d="M52 33.25H55V36.25H52V33.25Z" fill="#1681C4"></path><path d="M46 33.25H49V36.25H46V33.25Z" fill="#1681C4"></path><path d="M40 33.25H43V36.25H40V33.25Z" fill="#1681C4"></path><path d="M64 39.25H67V42.25H64V39.25Z" fill="#1681C4"></path><path d="M58 39.25H61V42.25H58V39.25Z" fill="#1681C4"></path><path d="M35.75 2.75V20.75" stroke="#1681C4" stroke-width="1.5" stroke-miterlimit="10" stroke-linecap="square"></path><path d="M54.25 10.02H35.75" stroke="#1681C4" stroke-width="1.5" stroke-miterlimit="10"></path><path d="M71.25 10.4199V32.9199" stroke="#1681C4" stroke-width="1.5" stroke-miterlimit="10"></path><path d="M59.3101 10.75V32.92" stroke="#1681C4" stroke-width="1.5" stroke-miterlimit="10"></path><path d="M35.75 16.75H71.25" stroke="#1681C4" stroke-width="1.5" stroke-miterlimit="10"></path><path d="M47.25 13.75V20.75" stroke="#1681C4" stroke-width="1.5" stroke-miterlimit="10"></path></svg> 