<?xml version="1.0" encoding="UTF-8"?> <svg xmlns="http://www.w3.org/2000/svg" width="75" height="75" viewBox="0 0 75 75" fill="none"><path d="M10.73 72.25V50.26" stroke="#FF9900" stroke-width="1.5" stroke-miterlimit="10"></path><path d="M14.29 72.25V48.75" stroke="#FF9900" stroke-width="1.5" stroke-miterlimit="10"></path><path d="M35.27 72.25V50.26" stroke="#FF9900" stroke-width="1.5" stroke-miterlimit="10"></path><path d="M31.71 72.25V48.75" stroke="#FF9900" stroke-width="1.5" stroke-miterlimit="10"></path><path d="M43.25 72.25V70.67C38.63 67.08 36.87 61.03 39.09 51.59L29.09 47.77C28.62 56.15 27.26 63.82 23 69.23C18.74 63.83 17.38 56.16 16.91 47.77L6.91 51.59C9.12 61.03 7.37 67.08 2.75 70.67V72.25" stroke="#FF9900" stroke-width="1.5" stroke-miterlimit="10"></path><path d="M8.54004 72.25H16.48" stroke="#FF9900" stroke-width="1.5" stroke-miterlimit="10"></path><path d="M29.52 72.25H37.46" stroke="#FF9900" stroke-width="1.5" stroke-miterlimit="10"></path><path d="M9.27002 57.6799H15.75" stroke="#FF9900" stroke-width="1.5" stroke-miterlimit="10"></path><path d="M30.25 57.6799H36.73" stroke="#FF9900" stroke-width="1.5" stroke-miterlimit="10"></path><path d="M23 69.23V72.25" stroke="#FF9900" stroke-width="1.5" stroke-miterlimit="10"></path><path d="M17.0698 50.0901C21.4198 52.6101 25.2398 52.4101 28.9398 50.0901" stroke="#FF9900" stroke-width="1.5" stroke-miterlimit="10"></path><path d="M21.4601 25.02C17.7101 25.74 14.8701 29.06 14.8701 33.04V34.32" stroke="#FF9900" stroke-width="1.5" stroke-miterlimit="10"></path><path d="M31.13 34.32V33.04C31.13 29.06 28.29 25.74 24.54 25.02" stroke="#FF9900" stroke-width="1.5" stroke-miterlimit="10"></path><path d="M24.2499 31.86H21.7499L21.4399 24.25H24.5599L24.2499 31.86Z" stroke="#FF9900" stroke-width="1.5" stroke-miterlimit="10"></path><path d="M31.75 34.1399C25.92 35.8599 20.08 35.8599 14.25 34.1399V35.6399C20.08 38.3799 25.92 38.3799 31.75 35.6399V34.1399Z" stroke="#FF9900" stroke-width="1.5" stroke-miterlimit="10"></path><path d="M18.6699 26.1299L19.5199 31.1099" stroke="#FF9900" stroke-width="1.5" stroke-miterlimit="10"></path><path d="M27.33 26.1299L26.48 31.1099" stroke="#FF9900" stroke-width="1.5" stroke-miterlimit="10"></path><path d="M31.1201 37.99V38.53C31.1201 39.34 30.6201 40.07 29.8601 40.36C29.8601 42.19 29.1401 43.94 27.8501 45.24L25.1701 47.93C24.6601 48.45 23.9601 48.74 23.2301 48.74H22.7601C22.0301 48.74 21.3301 48.45 20.8201 47.93L18.1401 45.24C16.8501 43.95 16.1301 42.19 16.1301 40.36C15.3701 40.07 14.8701 39.34 14.8701 38.53V37.99" stroke="#FF9900" stroke-width="1.5" stroke-miterlimit="10"></path><path d="M35.9102 43.9999V36.1499" stroke="#1681C4" stroke-width="1.5" stroke-miterlimit="10"></path><path d="M39 45.5899V30.8799" stroke="#1681C4" stroke-width="1.5" stroke-miterlimit="10"></path><path d="M62.0903 57.8601V32.0801" stroke="#1681C4" stroke-width="1.5" stroke-miterlimit="10"></path><path d="M59 57.8599V30.8799" stroke="#1681C4" stroke-width="1.5" stroke-miterlimit="10"></path><path d="M36.4004 31.9L42.0104 29.75C42.5504 39.38 44.1104 48.18 49.0004 54.39M49.0004 54.39C53.8904 48.19 55.4504 39.38 55.9904 29.75L67.4704 34.14C64.9304 44.98 66.9404 51.93 72.2504 56.05V64.25C67.2604 67.35 59.4604 69.25 49.0004 69.25V54.39Z" stroke="#1681C4" stroke-width="1.5" stroke-miterlimit="10"></path><path d="M56.4902 57.8601H65.6002" stroke="#1681C4" stroke-width="1.5" stroke-miterlimit="10"></path><path d="M33.2402 41.1299H40.6702" stroke="#1681C4" stroke-width="1.5" stroke-miterlimit="10"></path><path d="M57.3301 41.1299H64.7601" stroke="#1681C4" stroke-width="1.5" stroke-miterlimit="10"></path><path d="M42.1904 32.4199C47.1904 35.3099 51.5704 35.0799 55.8204 32.4199" stroke="#1681C4" stroke-width="1.5" stroke-miterlimit="10"></path><path d="M47.2404 3.63989C42.9304 4.46989 39.6704 8.27989 39.6704 12.8499V14.3199" stroke="#1681C4" stroke-width="1.5" stroke-miterlimit="10"></path><path d="M58.3303 14.3099V12.8399C58.3303 8.26988 55.0703 4.45988 50.7603 3.62988" stroke="#1681C4" stroke-width="1.5" stroke-miterlimit="10"></path><path d="M50.4404 11.49H47.5704L47.2104 2.75H50.8004L50.4404 11.49Z" stroke="#1681C4" stroke-width="1.5" stroke-miterlimit="10"></path><path d="M59.0504 14.1101C52.3504 16.0901 45.6504 16.0901 38.9604 14.1101V15.8301C45.6604 18.9701 52.3604 18.9701 59.0504 15.8301V14.1101Z" stroke="#1681C4" stroke-width="1.5" stroke-miterlimit="10"></path><path d="M44.0303 4.90991L45.0003 10.6299" stroke="#1681C4" stroke-width="1.5" stroke-miterlimit="10"></path><path d="M53.97 4.90991L53 10.6299" stroke="#1681C4" stroke-width="1.5" stroke-miterlimit="10"></path><path d="M58.3304 18.52V19.14C58.3304 20.08 57.7504 20.91 56.8804 21.24C56.8804 23.34 56.0504 25.35 54.5704 26.84L51.5004 29.93C50.9104 30.52 50.1104 30.86 49.2704 30.86H48.7304C47.8904 30.86 47.0904 30.53 46.5004 29.93L43.4304 26.84C41.9504 25.36 41.1204 23.34 41.1204 21.24C40.2504 20.91 39.6704 20.07 39.6704 19.14V18.52" stroke="#1681C4" stroke-width="1.5" stroke-miterlimit="10"></path></svg> 